<svg width="20" height="20" viewBox="0 0 20 20" fill="none" xmlns="http://www.w3.org/2000/svg">
<path fill-rule="evenodd" clip-rule="evenodd" d="M10 1.75C5.44365 1.75 1.75 5.44365 1.75 10C1.75 14.5563 5.44365 18.25 10 18.25C14.5563 18.25 18.25 14.5563 18.25 10C18.25 5.44365 14.5563 1.75 10 1.75ZM0.25 10C0.25 4.61522 4.61522 0.25 10 0.25C15.3848 0.25 19.75 4.61522 19.75 10C19.75 15.3848 15.3848 19.75 10 19.75C4.61522 19.75 0.25 15.3848 0.25 10Z" fill="white"/>
<path fill-rule="evenodd" clip-rule="evenodd" d="M5.12499 1.55991C5.48367 1.35273 5.94239 1.47555 6.14957 1.83422L10.6496 9.62485C10.8567 9.98353 10.7339 10.4422 10.3753 10.6494C10.0166 10.8566 9.55786 10.7338 9.35068 10.3751L4.85068 2.58448C4.6435 2.22581 4.76632 1.76709 5.12499 1.55991Z" fill="white"/>
<path fill-rule="evenodd" clip-rule="evenodd" d="M10.3753 9.35059C10.7339 9.55777 10.8567 10.0165 10.6496 10.3752L6.14957 18.1658C5.94239 18.5245 5.48367 18.6473 5.12499 18.4401C4.76632 18.2329 4.6435 17.7742 4.85068 17.4155L9.35068 9.6249C9.55786 9.26623 10.0166 9.14341 10.3753 9.35059Z" fill="white"/>
<path fill-rule="evenodd" clip-rule="evenodd" d="M9.25 10C9.25 9.58579 9.58579 9.25 10 9.25H19C19.4142 9.25 19.75 9.58579 19.75 10C19.75 10.4142 19.4142 10.75 19 10.75H10C9.58579 10.75 9.25 10.4142 9.25 10Z" fill="white"/>
<path fill-rule="evenodd" clip-rule="evenodd" d="M8.24679 0.758944C8.41618 0.380948 8.85992 0.211837 9.23792 0.381224C11.0762 1.205 12.6146 2.57744 13.6419 4.31022C14.6692 6.04301 15.1351 8.05124 14.9757 10.0594C14.943 10.4723 14.5817 10.7804 14.1688 10.7477C13.7558 10.7149 13.4477 10.3536 13.4804 9.94069C13.6153 8.24122 13.221 6.54165 12.3516 5.07519C11.4822 3.60873 10.1803 2.44723 8.62451 1.75007C8.24652 1.58068 8.07741 1.13694 8.24679 0.758944Z" fill="white"/>
<path fill-rule="evenodd" clip-rule="evenodd" d="M8.56839 6.02269C8.7457 6.39704 8.58597 6.84424 8.21163 7.02155C6.66957 7.75196 5.39192 8.94253 4.55466 10.4293C3.7174 11.916 3.36173 13.6258 3.53663 15.3231C3.57909 15.7351 3.27949 16.1036 2.86746 16.146C2.45542 16.1885 2.08699 15.8889 2.04453 15.4769C1.83783 13.471 2.25817 11.4503 3.24766 9.69325C4.23715 7.93618 5.7471 6.52914 7.56953 5.66593C7.94387 5.48862 8.39108 5.64835 8.56839 6.02269Z" fill="white"/>
<path fill-rule="evenodd" clip-rule="evenodd" d="M18.886 13.1043C19.1287 13.44 19.0533 13.9089 18.7176 14.1516C17.0845 15.3324 15.1256 15.9781 13.1104 15.9999C11.0953 16.0218 9.12283 15.4186 7.46451 14.2734C7.12367 14.0381 7.03817 13.5709 7.27355 13.2301C7.50892 12.8893 7.97603 12.8038 8.31687 13.0391C9.72006 14.0081 11.389 14.5185 13.0942 14.5C14.7993 14.4816 16.4569 13.9352 17.8387 12.936C18.1744 12.6933 18.6433 12.7687 18.886 13.1043Z" fill="white"/>
</svg>
