<svg width="16" height="22" viewBox="0 0 16 22" fill="none" xmlns="http://www.w3.org/2000/svg">
<path fill-rule="evenodd" clip-rule="evenodd" d="M8.00012 14.75C8.41434 14.75 8.75012 15.0858 8.75012 15.5V20.75C8.75012 21.1642 8.41434 21.5 8.00012 21.5C7.58591 21.5 7.25012 21.1642 7.25012 20.75V15.5C7.25012 15.0858 7.58591 14.75 8.00012 14.75Z" fill="white"/>
<path fill-rule="evenodd" clip-rule="evenodd" d="M3.50012 20.75C3.50012 20.3358 3.83591 20 4.25012 20H11.7501C12.1643 20 12.5001 20.3358 12.5001 20.75C12.5001 21.1642 12.1643 21.5 11.7501 21.5H4.25012C3.83591 21.5 3.50012 21.1642 3.50012 20.75Z" fill="white"/>
<path fill-rule="evenodd" clip-rule="evenodd" d="M2.78091 1.03741C2.87511 0.718704 3.16781 0.5 3.50015 0.5H12.5001C12.8325 0.5 13.1252 0.718704 13.2194 1.03741L15.6672 9.31867C15.868 10.0091 15.8149 10.7486 15.5176 11.4033C14.864 12.8492 13.8072 14.076 12.474 14.9365C11.1406 15.7971 9.5872 16.2548 8.00015 16.2548C6.4131 16.2548 4.85973 15.7971 3.52629 14.9365C2.19286 14.0758 1.13597 12.8488 0.482334 11.4026C0.185321 10.7481 0.132376 10.0089 0.333111 9.31868L0.334026 9.31553L2.78091 1.03741ZM4.06054 2L1.77343 9.73757L1.77302 9.739C1.67276 10.085 1.69955 10.4555 1.84859 10.7835L1.84921 10.7849C2.384 11.9681 3.24873 12.972 4.33972 13.6762C5.43071 14.3803 6.70165 14.7548 8.00015 14.7548C9.29864 14.7548 10.5696 14.3803 11.6606 13.6762C12.7516 12.972 13.6163 11.9681 14.1511 10.7849L14.1517 10.7835C14.3007 10.4555 14.3275 10.085 14.2273 9.73897L14.2269 9.73757L11.9398 2H4.06054Z" fill="white"/>
<path fill-rule="evenodd" clip-rule="evenodd" d="M7.6652 9.42099C4.60509 7.89537 2.55763 8.6271 1.74591 9.06359C1.3811 9.25976 0.92633 9.12305 0.730156 8.75824C0.533983 8.39342 0.670693 7.93866 1.03551 7.74248C2.21127 7.11023 4.77622 6.30449 8.33473 8.07871L8.3355 8.07909C11.5884 9.70556 13.7069 8.77078 14.4058 8.35748C14.7623 8.14663 15.2223 8.26472 15.4331 8.62125C15.644 8.97779 15.5259 9.43774 15.1694 9.64859C14.1245 10.2665 11.462 11.3192 7.6652 9.42099Z" fill="white"/>
</svg>
