<svg width="22" height="18" viewBox="0 0 22 18" fill="none" xmlns="http://www.w3.org/2000/svg">
<path d="M18.875 4.5C17.4275 4.5 16.25 5.6775 16.25 7.125C16.25 8.5725 17.4275 9.75 18.875 9.75C20.3225 9.75 21.5 8.5725 21.5 7.125C21.5 5.6775 20.3225 4.5 18.875 4.5ZM18.875 8.25C18.2544 8.25 17.75 7.74562 17.75 7.125C17.75 6.50438 18.2544 6 18.875 6C19.4956 6 20 6.50438 20 7.125C20 7.74562 19.4956 8.25 18.875 8.25Z" fill="black"/>
<path d="M5.75 7.125C5.75 5.6775 4.5725 4.5 3.125 4.5C1.6775 4.5 0.5 5.6775 0.5 7.125C0.5 8.5725 1.6775 9.75 3.125 9.75C4.5725 9.75 5.75 8.5725 5.75 7.125ZM3.125 8.25C2.50438 8.25 2 7.74562 2 7.125C2 6.50438 2.50438 6 3.125 6C3.74562 6 4.25 6.50438 4.25 7.125C4.25 7.74562 3.74562 8.25 3.125 8.25Z" fill="black"/>
<path d="M7.625 5.25C9.0725 5.25 10.25 4.0725 10.25 2.625C10.25 1.1775 9.0725 0 7.625 0C6.1775 0 5 1.1775 5 2.625C5 4.0725 6.1775 5.25 7.625 5.25ZM7.625 1.5C8.24562 1.5 8.75 2.00438 8.75 2.625C8.75 3.24562 8.24562 3.75 7.625 3.75C7.00438 3.75 6.5 3.24562 6.5 2.625C6.5 2.00438 7.00438 1.5 7.625 1.5Z" fill="black"/>
<path d="M14.375 5.25C15.8225 5.25 17 4.0725 17 2.625C17 1.1775 15.8225 0 14.375 0C12.9275 0 11.75 1.1775 11.75 2.625C11.75 4.0725 12.9275 5.25 14.375 5.25ZM14.375 1.5C14.9956 1.5 15.5 2.00438 15.5 2.625C15.5 3.24562 14.9956 3.75 14.375 3.75C13.7544 3.75 13.25 3.24562 13.25 2.625C13.25 2.00438 13.7544 1.5 14.375 1.5Z" fill="black"/>
<path d="M16.5378 10.9594C15.7672 10.5263 15.2084 9.82031 14.9637 8.97094C14.6591 7.91156 13.9606 7.035 12.9969 6.50156C12.0331 5.96812 10.9184 5.84156 9.86 6.14625C8.48562 6.54094 7.42906 7.5975 7.03437 8.97187C6.78969 9.82312 6.23 10.53 5.465 10.9575C3.64906 11.9466 2.97688 14.2284 3.96594 16.0444C4.62031 17.2462 5.8775 17.9953 7.24813 18H7.25094C7.75438 18 8.24469 17.9016 8.70781 17.7084C10.1853 17.0962 11.8119 17.0962 13.2875 17.7084C13.7525 17.9025 14.2428 18.0009 14.7481 18.0009H14.7509C16.8191 17.9934 18.4953 16.3059 18.4878 14.2378C18.4831 12.8709 17.735 11.6156 16.5359 10.9603L16.5378 10.9594ZM14.7491 16.5H14.7472C14.4434 16.5 14.1472 16.4409 13.865 16.3228C12.0172 15.5569 9.98188 15.5569 8.13219 16.3228C7.85188 16.44 7.55563 16.4991 7.25375 16.4991H7.25187C6.43062 16.4963 5.67687 16.0463 5.28406 15.3253C4.69062 14.2359 5.09375 12.8662 6.19062 12.2691C7.31 11.6419 8.12188 10.6172 8.47625 9.38437C8.7275 8.50969 9.39969 7.8375 10.2744 7.58625C10.5144 7.51687 10.76 7.48312 11.0028 7.48312C11.4416 7.48312 11.8756 7.59469 12.2703 7.81312C12.8834 8.1525 13.3278 8.71125 13.5219 9.38437C13.8762 10.6181 14.6881 11.6419 15.8075 12.2691C15.8103 12.2709 15.8122 12.2719 15.815 12.2737C16.5359 12.6666 16.9859 13.4203 16.9888 14.2416C16.9925 15.4819 15.9875 16.4953 14.7481 16.4991L14.7491 16.5Z" fill="black"/>
</svg>
