<svg width="22" height="21" viewBox="0 0 22 21" fill="none" xmlns="http://www.w3.org/2000/svg">
<path d="M18.1381 7.49991C18.1381 7.49991 18.1297 7.49991 18.126 7.49991H11.5625V6.50991C12.6397 6.02897 13.2716 5.33616 13.4431 4.4446C13.8294 2.43741 11.5635 0.407725 11.3038 0.182725C11.0263 -0.0572754 10.6147 -0.0619629 10.3325 0.17335C10.0644 0.396475 7.72534 2.41397 8.10409 4.42491C8.27471 5.33147 8.93284 6.03366 10.0625 6.51741V7.49991H3.47846C1.8294 7.50647 0.493462 8.85366 0.500024 10.4999V11.7468C0.500024 12.8221 0.942524 13.873 1.71409 14.6277C1.74596 14.6596 1.77971 14.6896 1.81252 14.7196V19.499C1.81252 20.3258 2.48565 20.999 3.31252 20.999H18.3125C19.1394 20.999 19.8125 20.3258 19.8125 19.499V14.7196C19.8453 14.6896 19.8791 14.6596 19.911 14.6277C20.6825 13.8721 21.125 12.8221 21.125 11.7458V10.4774C21.1185 8.83304 19.7778 7.49897 18.1372 7.49897L18.1381 7.49991ZM9.57877 4.14835C9.49534 3.70866 9.74659 3.08335 10.2866 2.38679C10.461 2.16179 10.6428 1.95929 10.8022 1.79335C10.955 1.95929 11.1275 2.15991 11.2935 2.38304C11.8156 3.08522 12.0556 3.7171 11.9694 4.16335C11.8897 4.57491 11.4988 4.92366 10.8069 5.2021C10.2547 4.98835 9.67252 4.64804 9.57784 4.14835H9.57877ZM2.00002 10.4971C1.99815 10.0987 2.1519 9.72366 2.43221 9.44147C2.71252 9.15835 3.08659 9.00179 3.48409 9.00085H18.1344C18.9538 9.00085 19.6213 9.66554 19.625 10.4821V11.7477C19.625 12.4227 19.3466 13.0827 18.8619 13.5571C18.3913 14.0174 17.7772 14.264 17.1378 14.2508C15.8216 14.2237 14.75 13.1305 14.751 11.8133C14.751 11.803 14.75 11.7927 14.7491 11.7815C14.7491 11.7665 14.7491 11.7515 14.7472 11.7365C14.7472 11.7299 14.7453 11.7233 14.7444 11.7168C14.7416 11.699 14.7397 11.6802 14.736 11.6624C14.736 11.6587 14.7341 11.6549 14.7332 11.6512C14.7285 11.6305 14.7238 11.6099 14.7172 11.5902C14.7163 11.5865 14.7144 11.5837 14.7135 11.5799C14.7069 11.5602 14.7003 11.5405 14.6919 11.5218C14.6825 11.4993 14.6722 11.4768 14.661 11.4562C14.661 11.4543 14.6591 11.4533 14.6581 11.4515C14.6469 11.4318 14.6356 11.4121 14.6235 11.3943C14.6197 11.3896 14.616 11.3849 14.6122 11.3802C14.6019 11.3652 14.5916 11.3512 14.5803 11.3371C14.5766 11.3324 14.5728 11.3287 14.5691 11.3249C14.5569 11.3108 14.5447 11.2968 14.5325 11.2846C14.5278 11.2799 14.5231 11.2762 14.5185 11.2715C14.5053 11.2593 14.4931 11.2471 14.4791 11.2358C14.4735 11.2312 14.4678 11.2274 14.4622 11.2227C14.4491 11.2124 14.436 11.2021 14.4219 11.1927C14.4163 11.189 14.4097 11.1862 14.4041 11.1824C14.3891 11.173 14.375 11.1637 14.36 11.1552C14.3572 11.1533 14.3535 11.1524 14.3506 11.1505C14.3319 11.1412 14.3141 11.1318 14.2944 11.1233C14.2906 11.1215 14.2869 11.1205 14.2831 11.1196C14.2644 11.1121 14.2447 11.1046 14.225 11.098C14.2156 11.0952 14.2063 11.0933 14.1969 11.0905C14.1828 11.0868 14.1678 11.0821 14.1538 11.0793C14.1435 11.0774 14.1331 11.0765 14.1228 11.0746C14.1088 11.0727 14.0947 11.0699 14.0797 11.068C14.0675 11.0671 14.0553 11.0671 14.0441 11.0662C14.031 11.0662 14.0169 11.0643 14.0038 11.0643C13.9606 11.0643 13.9194 11.069 13.8781 11.0755C13.8697 11.0774 13.8613 11.0774 13.8528 11.0793C13.5378 11.144 13.295 11.4055 13.2585 11.7308C13.2585 11.7327 13.2585 11.7355 13.2575 11.7374C13.2556 11.7533 13.2556 11.7683 13.2547 11.7843C13.2547 11.7946 13.2528 11.804 13.2528 11.8133C13.2528 13.1577 12.1597 14.2508 10.8153 14.2508C9.47096 14.2508 8.37784 13.1577 8.37784 11.8133C8.37784 11.7983 8.3769 11.7833 8.37596 11.7693C8.37596 11.759 8.37596 11.7477 8.37409 11.7365C8.37315 11.7252 8.37034 11.7149 8.3694 11.7046C8.36752 11.6905 8.36565 11.6765 8.36284 11.6624C8.36284 11.6596 8.36096 11.6568 8.36096 11.654C8.29815 11.3652 8.0694 11.1383 7.77971 11.0783C7.73096 11.068 7.68034 11.0633 7.62877 11.0633C7.61846 11.0633 7.60815 11.0643 7.59784 11.0652C7.58284 11.0652 7.5669 11.0652 7.5519 11.0671C7.54627 11.0671 7.54065 11.069 7.53502 11.0699C7.51534 11.0727 7.49565 11.0746 7.4769 11.0783L7.47315 11.0793C7.42534 11.0896 7.3794 11.1037 7.33627 11.1224H7.3344C7.17784 11.1899 7.0494 11.308 6.96877 11.4562C6.96315 11.4665 6.95846 11.4768 6.95377 11.488C6.94815 11.4993 6.94252 11.5105 6.93784 11.5218C6.93221 11.534 6.92846 11.5471 6.92377 11.5593C6.92002 11.5696 6.91534 11.5799 6.91252 11.5902C6.9069 11.608 6.90315 11.6258 6.89846 11.6446C6.89752 11.6502 6.89565 11.6558 6.89377 11.6624C6.89002 11.6802 6.88815 11.699 6.88534 11.7168C6.88534 11.7233 6.88252 11.7299 6.88252 11.7365C6.88065 11.7515 6.88065 11.7665 6.88065 11.7815C6.88065 11.7918 6.87877 11.8021 6.87877 11.8124C6.87877 13.1296 5.80815 14.2227 4.49096 14.2499C3.85065 14.264 3.23752 14.0174 2.7669 13.5562C2.28127 13.0808 2.00377 12.4218 2.00377 11.7468V10.4971H2.00002ZM18.3125 19.4999H3.31252V15.583C3.67346 15.6937 4.05127 15.7508 4.43659 15.7508C4.46377 15.7508 4.49096 15.7508 4.51909 15.7508C5.79034 15.7246 6.91909 15.0824 7.62221 14.1168C8.33846 15.1058 9.50096 15.7508 10.8125 15.7508C12.1241 15.7508 13.2875 15.1058 14.0028 14.1168C14.706 15.0833 15.8347 15.7246 17.106 15.7508C17.5213 15.7602 17.9263 15.703 18.3125 15.5849V19.5008V19.4999Z" fill="white"/>
</svg>
