<svg width="20" height="21" viewBox="0 0 20 21" fill="none" xmlns="http://www.w3.org/2000/svg">
<path fill-rule="evenodd" clip-rule="evenodd" d="M15.875 12.25C14.8395 12.25 14 13.0895 14 14.125C14 15.1605 14.8395 16 15.875 16C16.9105 16 17.75 15.1605 17.75 14.125C17.75 13.0895 16.9105 12.25 15.875 12.25ZM12.5 14.125C12.5 12.261 14.011 10.75 15.875 10.75C17.739 10.75 19.25 12.261 19.25 14.125C19.25 15.989 17.739 17.5 15.875 17.5C14.011 17.5 12.5 15.989 12.5 14.125Z" fill="white"/>
<path fill-rule="evenodd" clip-rule="evenodd" d="M3.875 15.25C2.83947 15.25 2 16.0895 2 17.125C2 18.1605 2.83947 19 3.875 19C4.91053 19 5.75 18.1605 5.75 17.125C5.75 16.0895 4.91053 15.25 3.875 15.25ZM0.5 17.125C0.5 15.261 2.01104 13.75 3.875 13.75C5.73896 13.75 7.25 15.261 7.25 17.125C7.25 18.989 5.73896 20.5 3.875 20.5C2.01104 20.5 0.5 18.989 0.5 17.125Z" fill="white"/>
<path fill-rule="evenodd" clip-rule="evenodd" d="M19.2278 5.31809C19.3282 5.71994 19.0839 6.12714 18.6821 6.2276L6.68208 9.2276C6.28023 9.32806 5.87303 9.08374 5.77257 8.6819C5.67211 8.28005 5.91643 7.87285 6.31828 7.77239L18.3183 4.77239C18.7201 4.67193 19.1273 4.91625 19.2278 5.31809Z" fill="white"/>
<path fill-rule="evenodd" clip-rule="evenodd" d="M18.9616 0.408853C19.1436 0.550983 19.25 0.769055 19.25 1.00001V14.125C19.25 14.5392 18.9142 14.875 18.5 14.875C18.0858 14.875 17.75 14.5392 17.75 14.125V1.96059L7.25 4.58559V17.125C7.25 17.5392 6.91421 17.875 6.5 17.875C6.08579 17.875 5.75 17.5392 5.75 17.125V4.00001C5.75 3.65586 5.98422 3.35587 6.3181 3.2724L18.3181 0.2724C18.5422 0.216386 18.7795 0.266722 18.9616 0.408853Z" fill="white"/>
</svg>
