<svg width="18" height="20" viewBox="0 0 18 20" fill="none" xmlns="http://www.w3.org/2000/svg">
<path d="M16.5 0.25H3.74062C2.09719 0.25 0.756563 1.58312 0.75 3.22562V18.2294C0.75 18.2359 0.75 18.2434 0.75 18.25V19C0.75 19.4144 1.08562 19.75 1.5 19.75H15C15.4144 19.75 15.75 19.4144 15.75 19C15.75 18.5856 15.4144 18.25 15 18.25H2.25V18.2331C2.25375 17.4175 2.9175 16.7537 3.73125 16.75H16.5C16.9144 16.75 17.25 16.4144 17.25 16V1C17.25 0.585625 16.9144 0.25 16.5 0.25ZM8.25 1.75H12.75V8.5L10.95 7.15C10.6838 6.95031 10.3162 6.95031 10.05 7.15L8.25 8.5V1.75ZM15.75 15.25H3.72844C3.19031 15.2519 2.68594 15.3972 2.25 15.6484V3.23406C2.25187 2.83562 2.40844 2.4625 2.69063 2.18219C2.97188 1.90375 3.34406 1.75 3.74344 1.75H6.75V10C6.75 10.2841 6.91031 10.5438 7.16437 10.6713C7.41844 10.7988 7.72219 10.7706 7.95 10.6009L10.5 8.68844L13.05 10.6009C13.1822 10.7003 13.3406 10.7509 13.5 10.7509C13.6144 10.7509 13.7288 10.7247 13.8356 10.6722C14.0897 10.5447 14.25 10.2859 14.25 10.0009V1.75H15.75V15.25Z" fill="white"/>
</svg>
