<svg width="20" height="20" viewBox="0 0 20 20" fill="none" xmlns="http://www.w3.org/2000/svg">
<path fill-rule="evenodd" clip-rule="evenodd" d="M10 1.75C5.44365 1.75 1.75 5.44365 1.75 10C1.75 14.5563 5.44365 18.25 10 18.25C14.5563 18.25 18.25 14.5563 18.25 10C18.25 5.44365 14.5563 1.75 10 1.75ZM0.25 10C0.25 4.61522 4.61522 0.25 10 0.25C15.3848 0.25 19.75 4.61522 19.75 10C19.75 15.3848 15.3848 19.75 10 19.75C4.61522 19.75 0.25 15.3848 0.25 10Z" fill="white"/>
<path fill-rule="evenodd" clip-rule="evenodd" d="M9.55888 5.45582C9.82179 5.26473 10.1779 5.26473 10.4408 5.45582L14.1814 8.17457C14.4439 8.36534 14.5539 8.70329 14.4541 9.01203L13.0291 13.4183C12.929 13.7278 12.6408 13.9375 12.3155 13.9375H7.68421C7.35891 13.9375 7.0707 13.7278 6.9706 13.4183L5.5456 9.01203C5.44575 8.70329 5.55577 8.36534 5.81826 8.17457L9.55888 5.45582ZM7.14022 9.06809L8.2299 12.4375H11.7698L12.8594 9.06809L9.99983 6.98967L7.14022 9.06809Z" fill="white"/>
<path fill-rule="evenodd" clip-rule="evenodd" d="M10 3.25C10.4142 3.25 10.75 3.58579 10.75 4V6.0625C10.75 6.47671 10.4142 6.8125 10 6.8125C9.58579 6.8125 9.25 6.47671 9.25 6.0625V4C9.25 3.58579 9.58579 3.25 10 3.25Z" fill="white"/>
<path fill-rule="evenodd" clip-rule="evenodd" d="M6.1118 1.17826C6.35509 0.843019 6.82408 0.768478 7.15931 1.01177L10.0001 3.07333L12.8408 1.01177C13.176 0.768478 13.645 0.843019 13.8883 1.17826C14.1316 1.51349 14.0571 1.98248 13.7218 2.22577L10.4406 4.60702C10.1778 4.79768 9.82227 4.79768 9.55954 4.60702L6.27829 2.22577C5.94306 1.98248 5.86851 1.51349 6.1118 1.17826Z" fill="white"/>
<path fill-rule="evenodd" clip-rule="evenodd" d="M3.57708 7.91274C3.70469 7.51867 4.12759 7.30266 4.52165 7.43026L6.4904 8.06776C6.88447 8.19537 7.10049 8.61827 6.97288 9.01233C6.84528 9.4064 6.42238 9.62242 6.02831 9.49481L4.05956 8.85731C3.66549 8.72971 3.44948 8.30681 3.57708 7.91274Z" fill="white"/>
<path fill-rule="evenodd" clip-rule="evenodd" d="M2.81267 3.57704C3.20676 3.44951 3.62962 3.6656 3.75715 4.0597L5.00403 7.91282C5.10385 8.22129 4.99415 8.55899 4.7321 8.74991L1.45085 11.1405C1.11607 11.3844 0.646943 11.3108 0.40303 10.976C0.159117 10.6412 0.232782 10.1721 0.567564 9.92818L3.40957 7.85758L2.33001 4.52152C2.20249 4.12743 2.41858 3.70457 2.81267 3.57704Z" fill="white"/>
<path fill-rule="evenodd" clip-rule="evenodd" d="M8.1244 12.5802C8.45979 12.8232 8.53464 13.2922 8.29157 13.6276L7.0822 15.2963C6.83913 15.6317 6.37019 15.7066 6.03479 15.4635C5.6994 15.2204 5.62455 14.7515 5.86762 14.4161L7.07699 12.7473C7.32006 12.412 7.789 12.3371 8.1244 12.5802Z" fill="white"/>
<path fill-rule="evenodd" clip-rule="evenodd" d="M1.66577 14.8562C1.66577 14.442 2.00156 14.1062 2.41577 14.1062H6.47515C6.79979 14.1062 7.08757 14.3151 7.18821 14.6238L8.44446 18.4769C8.57285 18.8707 8.35769 19.294 7.96388 19.4224C7.57007 19.5508 7.14673 19.3356 7.01834 18.9418L5.93082 15.6062H2.41577C2.00156 15.6062 1.66577 15.2704 1.66577 14.8562Z" fill="white"/>
<path fill-rule="evenodd" clip-rule="evenodd" d="M11.8755 12.5802C12.2109 12.3371 12.6798 12.412 12.9229 12.7473L14.1323 14.4161C14.3753 14.7515 14.3005 15.2204 13.9651 15.4635C13.6297 15.7066 13.1608 15.6317 12.9177 15.2963L11.7083 13.6276C11.4652 13.2922 11.5401 12.8232 11.8755 12.5802Z" fill="white"/>
<path fill-rule="evenodd" clip-rule="evenodd" d="M12.8121 14.6238C12.9127 14.3151 13.2005 14.1062 13.5251 14.1062H17.5845C17.9987 14.1062 18.3345 14.442 18.3345 14.8562C18.3345 15.2704 17.9987 15.6062 17.5845 15.6062H14.0695L12.9819 18.9418C12.8535 19.3356 12.4302 19.5508 12.0364 19.4224C11.6426 19.294 11.4274 18.8707 11.5558 18.4769L12.8121 14.6238Z" fill="white"/>
<path fill-rule="evenodd" clip-rule="evenodd" d="M16.423 7.91274C16.5506 8.30681 16.3345 8.72971 15.9405 8.85731L13.9717 9.49481C13.5777 9.62242 13.1548 9.4064 13.0272 9.01233C12.8996 8.61827 13.1156 8.19537 13.5096 8.06776L15.4784 7.43026C15.8725 7.30266 16.2954 7.51867 16.423 7.91274Z" fill="white"/>
<path fill-rule="evenodd" clip-rule="evenodd" d="M17.1871 3.57704C17.5812 3.70457 17.7973 4.12743 17.6697 4.52152L16.5902 7.85758L19.4322 9.92818C19.767 10.1721 19.8406 10.6412 19.5967 10.976C19.3528 11.3108 18.8837 11.3844 18.5489 11.1405L15.2676 8.74991C15.0056 8.55899 14.8959 8.22129 14.9957 7.91282L16.2426 4.0597C16.3701 3.6656 16.793 3.44951 17.1871 3.57704Z" fill="white"/>
</svg>
