<svg width="24" height="18" viewBox="0 0 24 18" fill="none" xmlns="http://www.w3.org/2000/svg">
<path fill-rule="evenodd" clip-rule="evenodd" d="M0.75 8.25C0.75 7.83579 1.08579 7.5 1.5 7.5H22.5C22.9142 7.5 23.25 7.83579 23.25 8.25C23.25 8.66421 22.9142 9 22.5 9H1.5C1.08579 9 0.75 8.66421 0.75 8.25Z" fill="white"/>
<path fill-rule="evenodd" clip-rule="evenodd" d="M17.25 13.5C17.6642 13.5 18 13.8358 18 14.25V16.5H20.25V14.25C20.25 13.8358 20.5858 13.5 21 13.5C21.4142 13.5 21.75 13.8358 21.75 14.25V16.5C21.75 16.8978 21.592 17.2794 21.3107 17.5607C21.0294 17.842 20.6478 18 20.25 18H18C17.6022 18 17.2206 17.842 16.9393 17.5607C16.658 17.2794 16.5 16.8978 16.5 16.5V14.25C16.5 13.8358 16.8358 13.5 17.25 13.5Z" fill="white"/>
<path fill-rule="evenodd" clip-rule="evenodd" d="M3 13.5C3.41421 13.5 3.75 13.8358 3.75 14.25V16.5H6V14.25C6 13.8358 6.33579 13.5 6.75 13.5C7.16421 13.5 7.5 13.8358 7.5 14.25V16.5C7.5 16.8978 7.34196 17.2794 7.06066 17.5607C6.77935 17.842 6.39782 18 6 18H3.75C3.35218 18 2.97065 17.842 2.68934 17.5607C2.40804 17.2794 2.25 16.8978 2.25 16.5V14.25C2.25 13.8358 2.58579 13.5 3 13.5Z" fill="white"/>
<path fill-rule="evenodd" clip-rule="evenodd" d="M5.25 11.25C5.25 10.8358 5.58579 10.5 6 10.5H7.5C7.91421 10.5 8.25 10.8358 8.25 11.25C8.25 11.6642 7.91421 12 7.5 12H6C5.58579 12 5.25 11.6642 5.25 11.25Z" fill="white"/>
<path fill-rule="evenodd" clip-rule="evenodd" d="M15.75 11.25C15.75 10.8358 16.0858 10.5 16.5 10.5H18C18.4142 10.5 18.75 10.8358 18.75 11.25C18.75 11.6642 18.4142 12 18 12H16.5C16.0858 12 15.75 11.6642 15.75 11.25Z" fill="white"/>
<path fill-rule="evenodd" clip-rule="evenodd" d="M6.4875 0.75H17.5155C17.8064 0.751175 18.0906 0.83687 18.3336 0.996661C18.5758 1.1559 18.7666 1.38188 18.8831 1.64725C18.8835 1.64817 18.8839 1.64909 18.8843 1.65001L21.6852 7.94511C21.7279 8.04108 21.75 8.14496 21.75 8.25V14.25C21.75 14.6642 21.4142 15 21 15H3C2.58579 15 2.25 14.6642 2.25 14.25V8.25C2.25 8.14496 2.27207 8.04108 2.31477 7.94511L5.117 1.64713C5.23345 1.38181 5.42426 1.15588 5.6664 0.996661C5.90942 0.83687 6.19365 0.751175 6.48449 0.750006L6.4875 0.75ZM6.49051 2.25L6.48838 2.2549L3.75 8.40932V13.5H20.25V8.40932L17.5095 2.25L6.49051 2.25Z" fill="white"/>
</svg>
