<svg width="24" height="17" viewBox="0 0 24 17" fill="none" xmlns="http://www.w3.org/2000/svg">
<path fill-rule="evenodd" clip-rule="evenodd" d="M13.5 6.12503C13.5 5.71082 13.8358 5.37503 14.25 5.37503H17.25C17.6642 5.37503 18 5.71082 18 6.12503C18 6.53924 17.6642 6.87503 17.25 6.87503H14.25C13.8358 6.87503 13.5 6.53924 13.5 6.12503Z" fill="white"/>
<path fill-rule="evenodd" clip-rule="evenodd" d="M6 6.12503C6 5.71082 6.33579 5.37503 6.75 5.37503H9.75C10.1642 5.37503 10.5 5.71082 10.5 6.12503C10.5 6.53924 10.1642 6.87503 9.75 6.87503H6.75C6.33579 6.87503 6 6.53924 6 6.12503Z" fill="white"/>
<path fill-rule="evenodd" clip-rule="evenodd" d="M8.25 3.87503C8.66421 3.87503 9 4.21082 9 4.62503V7.62503C9 8.03924 8.66421 8.37503 8.25 8.37503C7.83579 8.37503 7.5 8.03924 7.5 7.62503V4.62503C7.5 4.21082 7.83579 3.87503 8.25 3.87503Z" fill="white"/>
<path fill-rule="evenodd" clip-rule="evenodd" d="M16.125 0.471924C17.6169 0.471924 19.0476 1.06456 20.1025 2.11945C21.1574 3.17434 21.75 4.60508 21.75 6.09692C21.75 7.58877 21.1574 9.01951 20.1025 10.0744C19.0481 11.1289 17.6181 11.7214 16.1269 11.7219H16.125L10.3658 11.7485L6.53772 15.9842L5.9813 15.4813L6.51271 16.0105C6.00521 16.5201 5.3482 16.8543 4.63748 16.9643C3.92675 17.0742 3.19948 16.9543 2.56169 16.622C1.9239 16.2896 1.40896 15.7622 1.09194 15.1167C0.774915 14.4711 0.672392 13.7412 0.799318 13.0333L0.801412 13.0221L2.33773 5.1438C2.56972 3.84487 3.25024 2.66849 4.26075 1.81981C5.2728 0.969852 6.55142 0.502704 7.87303 0.500051M16.125 1.97192L7.87647 2.00005C6.90656 2.00189 5.96816 2.34468 5.22543 2.96846C4.4827 3.59224 3.98293 4.45729 3.81352 5.4123L3.07505 5.2813L3.81118 5.42485L2.27486 13.3032C2.20576 13.6948 2.26298 14.0984 2.43834 14.4555C2.61446 14.8141 2.90054 15.1071 3.25487 15.2917C3.60919 15.4764 4.01324 15.543 4.40808 15.4819C4.79744 15.4216 5.15778 15.2403 5.43807 14.9638L9.47487 10.4972C9.61626 10.3407 9.81697 10.251 10.0278 10.2501L16.1216 10.2219L16.125 10.2219C17.2191 10.2219 18.2683 9.78733 19.0419 9.01374C19.8154 8.24015 20.25 7.19094 20.25 6.09692C20.25 5.00291 19.8154 3.9537 19.0419 3.18011C18.2686 2.40681 17.2199 1.97225 16.1263 1.97192L16.125 1.97192Z" fill="white"/>
<path fill-rule="evenodd" clip-rule="evenodd" d="M20.7819 4.51695C21.1886 4.43794 21.5822 4.70351 21.6612 5.11012L23.1987 13.0226L23.2007 13.0333C23.3277 13.7412 23.2251 14.4711 22.9081 15.1167C22.5911 15.7622 22.0761 16.2896 21.4384 16.622C20.8006 16.9543 20.0733 17.0742 19.3626 16.9643C18.6518 16.8543 17.9948 16.5201 17.4873 16.0105L18.0188 15.4813L17.4613 15.983L13.4113 11.483C13.1342 11.1751 13.1592 10.7009 13.467 10.4238C13.7749 10.1467 14.2491 10.1717 14.5262 10.4796L18.5625 14.9643C18.8427 15.2405 19.2028 15.4217 19.592 15.4819C19.9868 15.543 20.3909 15.4764 20.7452 15.2917C21.0995 15.1071 21.3856 14.8141 21.5617 14.4555C21.7371 14.0983 21.7943 13.6947 21.7252 13.3029L20.1888 5.39624C20.1098 4.98963 20.3753 4.59596 20.7819 4.51695Z" fill="white"/>
</svg>
