<svg width="24" height="18" viewBox="0 0 24 18" fill="none" xmlns="http://www.w3.org/2000/svg">
<path fill-rule="evenodd" clip-rule="evenodd" d="M12.0001 1.5C7.85799 1.5 4.50012 4.85786 4.50012 9C4.50012 13.1421 7.85799 16.5 12.0001 16.5C16.1423 16.5 19.5001 13.1421 19.5001 9C19.5001 4.85786 16.1423 1.5 12.0001 1.5ZM3.00012 9C3.00012 4.02944 7.02956 0 12.0001 0C16.9707 0 21.0001 4.02944 21.0001 9C21.0001 13.9706 16.9707 18 12.0001 18C7.02956 18 3.00012 13.9706 3.00012 9Z" fill="white"/>
<path fill-rule="evenodd" clip-rule="evenodd" d="M20.5453 2.93541C19.7739 2.89045 18.7253 3.03126 17.4675 3.37635C17.068 3.48595 16.6554 3.25098 16.5458 2.85153C16.4362 2.45207 16.6711 2.03941 17.0706 1.92981C18.4097 1.56241 19.6345 1.37978 20.6326 1.43795C21.5976 1.49419 22.5603 1.79343 23.0446 2.6213L23.0471 2.62565C23.4797 3.37675 23.3361 4.2534 22.9948 5.03461C22.6459 5.83302 22.026 6.69247 21.226 7.56056C19.6197 9.30362 17.166 11.2115 14.25 12.8934C11.3344 14.5751 8.45548 15.7461 6.14252 16.2661C4.99059 16.525 3.93607 16.6324 3.06963 16.5354C2.22151 16.4405 1.3906 16.1264 0.954968 15.3768L0.95337 15.374C0.474819 14.5425 0.698478 13.5576 1.13104 12.695C1.5791 11.8015 2.34884 10.8311 3.33508 9.85452C3.62941 9.56308 4.10428 9.56541 4.39573 9.85975C4.68717 10.1541 4.68484 10.6289 4.3905 10.9204C3.46424 11.8376 2.81836 12.6765 2.47189 13.3674C2.11094 14.0872 2.15986 14.4616 2.25268 14.6245C2.33811 14.7701 2.58466 14.9718 3.23652 15.0448C3.87213 15.1159 4.74476 15.0429 5.81353 14.8026C7.94198 14.3241 10.6787 13.2217 13.5006 11.594C16.3221 9.96658 18.645 8.14786 20.123 6.54404C20.8652 5.73869 21.3644 5.01963 21.6203 4.43405C21.8823 3.83429 21.8308 3.5216 21.7485 3.37643C21.6501 3.21072 21.3463 2.98208 20.5453 2.93541Z" fill="white"/>
</svg>
