<svg width="20" height="20" viewBox="0 0 20 20" fill="none" xmlns="http://www.w3.org/2000/svg">
<path fill-rule="evenodd" clip-rule="evenodd" d="M0.25 6.5C0.25 5.67157 0.921573 5 1.75 5H18.25C19.0784 5 19.75 5.67157 19.75 6.5V17.75C19.75 18.5784 19.0784 19.25 18.25 19.25H1.75C0.921573 19.25 0.25 18.5784 0.25 17.75V6.5ZM18.25 6.5H1.75V17.75H18.25V6.5Z" fill="white"/>
<path fill-rule="evenodd" clip-rule="evenodd" d="M4.96967 0.71967C5.26256 0.426777 5.73744 0.426777 6.03033 0.71967L10 4.68934L13.9697 0.71967C14.2626 0.426777 14.7374 0.426777 15.0303 0.71967C15.3232 1.01256 15.3232 1.48744 15.0303 1.78033L10.5303 6.28033C10.2374 6.57322 9.76256 6.57322 9.46967 6.28033L4.96967 1.78033C4.67678 1.48744 4.67678 1.01256 4.96967 0.71967Z" fill="white"/>
</svg>
