<svg width="24" height="15" viewBox="0 0 24 15" fill="none" xmlns="http://www.w3.org/2000/svg">
<path fill-rule="evenodd" clip-rule="evenodd" d="M13.5996 0.626454C13.7334 0.393584 13.9815 0.25 14.25 0.25H18C18.5967 0.25 19.169 0.487054 19.591 0.90901C20.0129 1.33097 20.25 1.90326 20.25 2.5C20.25 2.91421 19.9142 3.25 19.5 3.25C19.0858 3.25 18.75 2.91421 18.75 2.5C18.75 2.30109 18.671 2.11032 18.5303 1.96967C18.3897 1.82902 18.1989 1.75 18 1.75H15.5558L20.1478 9.6221C20.3565 9.97989 20.2357 10.4391 19.8779 10.6478C19.5201 10.8565 19.0609 10.7357 18.8522 10.3779L13.6022 1.3779C13.4669 1.14594 13.4659 0.859325 13.5996 0.626454Z" fill="white"/>
<path fill-rule="evenodd" clip-rule="evenodd" d="M19.5 7C17.8431 7 16.5 8.34315 16.5 10C16.5 11.6569 17.8431 13 19.5 13C21.1569 13 22.5 11.6569 22.5 10C22.5 8.34315 21.1569 7 19.5 7ZM15 10C15 7.51472 17.0147 5.5 19.5 5.5C21.9853 5.5 24 7.51472 24 10C24 12.4853 21.9853 14.5 19.5 14.5C17.0147 14.5 15 12.4853 15 10Z" fill="white"/>
<path fill-rule="evenodd" clip-rule="evenodd" d="M4.5 7C2.84315 7 1.5 8.34315 1.5 10C1.5 11.6569 2.84315 13 4.5 13C6.15685 13 7.5 11.6569 7.5 10C7.5 8.34315 6.15685 7 4.5 7ZM0 10C0 7.51472 2.01472 5.5 4.5 5.5C6.98528 5.5 9 7.51472 9 10C9 12.4853 6.98528 14.5 4.5 14.5C2.01472 14.5 0 12.4853 0 10Z" fill="white"/>
<path fill-rule="evenodd" clip-rule="evenodd" d="M3.75 1C3.75 0.585786 4.08579 0.25 4.5 0.25H7.125C7.39175 0.25 7.63843 0.391683 7.77283 0.622097L13.0228 9.6221C13.2315 9.97989 13.1107 10.4391 12.7529 10.6478C12.3951 10.8565 11.9359 10.7357 11.7272 10.3779L6.69422 1.75H4.5C4.08579 1.75 3.75 1.41421 3.75 1Z" fill="white"/>
<path fill-rule="evenodd" clip-rule="evenodd" d="M8.27232 3.55791C8.41351 3.36442 8.63864 3.25 8.87818 3.25H15.9469C16.3611 3.25 16.6969 3.58579 16.6969 4C16.6969 4.41421 16.3611 4.75 15.9469 4.75H9.25935L5.10591 10.4421C4.86175 10.7767 4.39257 10.85 4.05797 10.6059C3.72336 10.3617 3.65004 9.89252 3.8942 9.55791L8.27232 3.55791Z" fill="white"/>
</svg>
