<svg width="18" height="20" viewBox="0 0 18 20" fill="none" xmlns="http://www.w3.org/2000/svg">
<path fill-rule="evenodd" clip-rule="evenodd" d="M0.0350188 13.5226C0.16061 13.1279 0.582401 12.9097 0.977116 13.0353L17.4771 18.2853C17.8718 18.4109 18.09 18.8327 17.9644 19.2274C17.8388 19.6221 17.417 19.8403 17.0223 19.7147L0.52231 14.4647C0.127596 14.3391 -0.0905722 13.9173 0.0350188 13.5226Z" fill="white"/>
<path fill-rule="evenodd" clip-rule="evenodd" d="M17.9644 13.5226C18.09 13.9173 17.8718 14.3391 17.4771 14.4647L0.977116 19.7147C0.582401 19.8403 0.16061 19.6221 0.0350188 19.2274C-0.0905722 18.8327 0.127596 18.4109 0.52231 18.2853L17.0223 13.0353C17.417 12.9097 17.8388 13.1279 17.9644 13.5226Z" fill="white"/>
<path fill-rule="evenodd" clip-rule="evenodd" d="M9.4159 6.37596L8.99988 7L8.58385 6.37596C8.83578 6.20801 9.16398 6.20801 9.4159 6.37596ZM8.58207 7.62285C8.58201 7.6228 8.58246 7.62311 8.58342 7.62376L8.58207 7.62285ZM8.99988 7.95615C9.16537 8.1026 9.36087 8.29235 9.55544 8.51934C10.0613 9.10949 10.4999 9.87843 10.4999 10.75C10.4999 11.1478 10.3418 11.5294 10.0605 11.8107C9.77923 12.092 9.3977 12.25 8.99988 12.25C8.60205 12.25 8.22052 12.092 7.93922 11.8107C7.65791 11.5294 7.49988 11.1478 7.49988 10.75C7.49988 9.87843 7.93848 9.10949 8.44432 8.51934C8.63889 8.29235 8.83438 8.1026 8.99988 7.95615ZM8.58385 6.37596C8.58408 6.37581 8.58385 6.37596 8.99988 7C9.4159 6.37596 9.41568 6.37581 9.4159 6.37596L9.41685 6.3766L9.41801 6.37737L9.42094 6.37935L9.42925 6.38498L9.45524 6.40297C9.4766 6.41792 9.50588 6.4388 9.54195 6.46542C9.61401 6.5186 9.71361 6.59506 9.83158 6.69337C10.0665 6.88915 10.3797 7.17607 10.6943 7.54316C11.3135 8.26551 11.9999 9.37157 11.9999 10.75C11.9999 11.5456 11.6838 12.3087 11.1212 12.8713C10.5586 13.4339 9.79553 13.75 8.99988 13.75C8.20423 13.75 7.44117 13.4339 6.87856 12.8713C6.31595 12.3087 5.99988 11.5456 5.99988 10.75C5.99988 9.37157 6.68627 8.26551 7.30544 7.54316C7.62009 7.17607 7.93324 6.88915 8.16818 6.69337C8.28615 6.59506 8.38575 6.5186 8.45781 6.46542C8.49388 6.4388 8.52316 6.41792 8.54451 6.40297L8.57051 6.38498L8.57881 6.37935L8.58175 6.37737L8.5829 6.3766L8.58385 6.37596Z" fill="white"/>
<path fill-rule="evenodd" clip-rule="evenodd" d="M9.39295 0.361256L8.99988 1L8.60681 0.361256C8.84786 0.212915 9.1519 0.212915 9.39295 0.361256ZM8.99988 1.90441C8.90899 1.96901 8.80498 2.04484 8.69061 2.13136C8.25599 2.46011 7.67807 2.93827 7.10262 3.53586C5.93025 4.75332 4.87488 6.35445 4.87488 8.125C4.87488 9.21902 5.30947 10.2682 6.08306 11.0418C6.85665 11.8154 7.90586 12.25 8.99988 12.25C10.0939 12.25 11.1431 11.8154 11.9167 11.0418C12.6903 10.2682 13.1249 9.21902 13.1249 8.125C13.1249 6.35445 12.0695 4.75332 10.8971 3.53586C10.3217 2.93827 9.74377 2.46011 9.30915 2.13136C9.19477 2.04484 9.09077 1.96901 8.99988 1.90441ZM8.60681 0.361256C8.60703 0.361115 8.60681 0.361256 8.99988 1C9.39295 0.361256 9.39272 0.361115 9.39295 0.361256L9.39538 0.362755L9.39958 0.365363L9.4132 0.373886C9.42456 0.381031 9.44043 0.391097 9.46052 0.404025C9.50069 0.429877 9.55776 0.467208 9.62931 0.515564C9.77233 0.61222 9.97371 0.753257 10.214 0.935049C10.6935 1.2977 11.3343 1.82735 11.9776 2.49539C13.2427 3.80918 14.6249 5.77055 14.6249 8.125C14.6249 9.61684 14.0322 11.0476 12.9774 12.1025C11.9225 13.1574 10.4917 13.75 8.99988 13.75C7.50804 13.75 6.07729 13.1574 5.0224 12.1025C3.96751 11.0476 3.37488 9.61684 3.37488 8.125C3.37488 5.77055 4.75701 3.80918 6.02214 2.49539C6.66544 1.82735 7.30627 1.2977 7.78571 0.935049C8.02604 0.753257 8.22743 0.61222 8.37045 0.515564C8.442 0.467208 8.49907 0.429877 8.53923 0.404025C8.55932 0.391097 8.5752 0.381031 8.58656 0.373886L8.60017 0.365363L8.60438 0.362755L8.60681 0.361256Z" fill="white"/>
</svg>
