<svg width="20" height="17" viewBox="0 0 20 17" fill="none" xmlns="http://www.w3.org/2000/svg">
<path d="M16.7594 0.75H16.7463C16.3319 0.751875 15.9972 1.08937 15.9991 1.50281C16.001 1.91625 16.3366 2.25 16.7491 2.25C16.7528 2.25 16.7557 2.25 16.7585 2.25C17.5778 2.25 18.2453 2.91469 18.2491 3.73125V9.375H1.75003V3.74719C1.74816 3.34875 1.90191 2.97375 2.18222 2.69156C2.46253 2.40844 2.8366 2.25188 3.2341 2.25094H3.25003C3.6616 2.25094 3.99722 1.91906 4.00003 1.50656C4.00285 1.09219 3.67003 0.75375 3.25566 0.750937H3.22847C2.42972 0.75375 1.67972 1.06781 1.11722 1.635C0.554721 2.20219 0.246284 2.95406 0.250034 3.75V12.375C0.250034 14.6494 2.10066 16.5 4.37503 16.5C5.59566 16.5 6.69347 15.9666 7.4491 15.1219C7.45753 15.1144 7.46597 15.1078 7.47347 15.0994C7.51097 15.0619 7.54378 15.0206 7.57191 14.9775C8.15128 14.2669 8.4991 13.3613 8.4991 12.375V10.875H11.4991V12.375C11.4991 14.6494 13.3497 16.5 15.6241 16.5C16.8447 16.5 17.9425 15.9666 18.6982 15.1219C18.7066 15.1144 18.715 15.1069 18.7235 15.0994C18.761 15.0619 18.7938 15.0206 18.8219 14.9775C19.4013 14.2669 19.7491 13.3613 19.7491 12.3759V3.72844C19.7425 2.08406 18.4019 0.75 16.7585 0.75H16.7594ZM18.25 12.375C18.25 12.7266 18.1797 13.0622 18.0541 13.3688L15.5603 10.875H18.25V12.375ZM1.75003 12.375V10.875H2.18972L5.85628 14.5416C5.43441 14.8303 4.92441 15 4.37597 15C2.92847 15 1.75097 13.8225 1.75097 12.375H1.75003ZM7.00003 12.375C7.00003 12.7266 6.92972 13.0622 6.8041 13.3688L4.31035 10.875H7.00003V12.375ZM13 12.375V10.875H13.4397L17.1063 14.5416C16.6844 14.8303 16.1744 15 15.626 15C14.1785 15 13.001 13.8225 13.001 12.375H13Z" fill="white"/>
</svg>
