<svg width="22" height="21" viewBox="0 0 22 21" fill="none" xmlns="http://www.w3.org/2000/svg">
<path fill-rule="evenodd" clip-rule="evenodd" d="M10.9999 1.74976C7.71299 1.74976 4.50859 2.77935 1.8368 4.69394L1.82954 4.69901L10.9999 19.0963L20.1704 4.69901L20.1631 4.69394C17.4913 2.77935 14.2869 1.74976 10.9999 1.74976ZM0.969204 3.47029C3.89452 1.37595 7.40208 0.249756 10.9999 0.249756C14.5978 0.249756 18.1054 1.37595 21.0307 3.47029C21.3471 3.68902 21.5669 4.02173 21.6437 4.39894C21.7212 4.77907 21.6473 5.1744 21.438 5.50096L21.4372 5.5022L12.2621 19.9068C12.1283 20.1198 11.9427 20.2955 11.7227 20.4175C11.5015 20.5401 11.2528 20.6044 10.9999 20.6044C10.7471 20.6044 10.4984 20.5401 10.2772 20.4175C10.0572 20.2955 9.8716 20.1198 9.73777 19.9068L0.562699 5.5022L0.56178 5.50077C0.352526 5.17425 0.278754 4.779 0.356174 4.39894C0.433012 4.02174 0.652762 3.68902 0.969204 3.47029Z" fill="white"/>
<path fill-rule="evenodd" clip-rule="evenodd" d="M10.9999 4.74866C8.0525 4.74866 5.19601 5.76905 2.9157 7.63648C2.59524 7.89892 2.1227 7.85188 1.86026 7.53141C1.59782 7.21095 1.64486 6.73841 1.96532 6.47597C4.5137 4.38901 7.70601 3.24866 10.9999 3.24866C14.2938 3.24866 17.4861 4.38901 20.0345 6.47597C20.3549 6.73841 20.402 7.21095 20.1395 7.53141C19.8771 7.85188 19.4045 7.89892 19.0841 7.63648C16.8038 5.76905 13.9473 4.74866 10.9999 4.74866Z" fill="white"/>
<path fill-rule="evenodd" clip-rule="evenodd" d="M15.8353 10.8882C15.5654 10.7771 15.2732 10.7306 14.9821 10.7524C14.6911 10.7742 14.4091 10.8636 14.1587 11.0136C13.9083 11.1636 13.6963 11.3699 13.5397 11.6162C13.3831 11.8626 13.2862 12.142 13.2566 12.4324C13.2271 12.7228 13.2658 13.0161 13.3695 13.2889C13.4733 13.5617 13.6394 13.8065 13.8545 14.0038C14.0695 14.2012 14.3277 14.3455 14.6085 14.4255C15.0068 14.5389 15.2378 14.9539 15.1244 15.3522C15.0109 15.7506 14.596 15.9816 14.1976 15.8681C13.6923 15.7242 13.2276 15.4643 12.8404 15.1092C12.4533 14.754 12.1544 14.3133 11.9676 13.8223C11.7808 13.3312 11.7112 12.8033 11.7643 12.2806C11.8175 11.7579 11.992 11.2548 12.2739 10.8115C12.5558 10.3681 12.9373 9.99664 13.388 9.7267C13.8388 9.45676 14.3463 9.29579 14.8702 9.2566C15.3942 9.2174 15.92 9.30107 16.4059 9.50094C16.8918 9.70081 17.3243 10.0114 17.669 10.4079C17.9408 10.7205 17.9077 11.1942 17.5951 11.4659C17.2825 11.7377 16.8088 11.7046 16.537 11.392C16.3455 11.1717 16.1052 10.9992 15.8353 10.8882Z" fill="white"/>
<path fill-rule="evenodd" clip-rule="evenodd" d="M7.65279 9.4199C7.34266 9.27802 6.9997 9.22341 6.66083 9.26195C6.32197 9.3005 6.00003 9.43074 5.72969 9.63866C5.45934 9.84657 5.25082 10.1243 5.12658 10.4419C4.97569 10.8277 4.54066 11.018 4.1549 10.8672C3.76915 10.7163 3.57876 10.2812 3.72965 9.89548C3.95329 9.32377 4.32861 8.82388 4.81524 8.44963C5.30186 8.07538 5.88134 7.84095 6.4913 7.77157C7.10126 7.70218 7.71859 7.80048 8.27683 8.05587C8.83508 8.31127 9.31309 8.71409 9.65941 9.22096C10.0057 9.72784 10.2072 10.3196 10.2423 10.9325C10.2773 11.5454 10.1444 12.1562 9.85809 12.6992C9.57174 13.2422 9.14271 13.6969 8.61718 14.0142C8.09165 14.3315 7.48953 14.4994 6.87564 14.4999H6.70624C6.29203 14.4999 5.95624 14.1642 5.95624 13.7499C5.95624 13.3357 6.29203 12.9999 6.70624 12.9999H6.87435C7.21527 12.9996 7.55002 12.9063 7.84188 12.7301C8.13384 12.5538 8.37219 12.3012 8.53127 11.9995C8.69036 11.6979 8.76415 11.3585 8.7447 11.018C8.72525 10.6775 8.6133 10.3488 8.42089 10.0672C8.22849 9.78558 7.96293 9.56179 7.65279 9.4199Z" fill="white"/>
</svg>
