<svg width="19" height="19" viewBox="0 0 19 19" fill="none" xmlns="http://www.w3.org/2000/svg">
<path fill-rule="evenodd" clip-rule="evenodd" d="M15.0478 1.82822C15.035 1.84419 15.0214 1.85975 15.0071 1.87486L12.0353 5.01549C11.8298 5.23259 11.5151 5.30699 11.2342 5.20484L3.43308 2.36807L2.16772 3.63343L8.15652 7.62596C8.34348 7.7506 8.4647 7.95249 8.48684 8.17609C8.50898 8.39969 8.42971 8.62144 8.27082 8.78033L6.02082 11.0303C5.88017 11.171 5.68941 11.25 5.49049 11.25H3.55115L2.37549 12.4257L5.14896 13.3612C5.3705 13.4359 5.54452 13.6097 5.61956 13.8311L6.56347 16.6164L7.74049 15.4393V13.5C7.74049 13.2887 7.82963 13.0872 7.98599 12.945L10.2547 10.8825C10.4153 10.7366 10.6312 10.6673 10.8467 10.6926C11.0623 10.7179 11.2562 10.8354 11.3786 11.0146L15.3498 16.8301L16.6224 15.5574L13.7856 7.7563C13.6832 7.47462 13.7583 7.159 13.9767 6.95366L17.0931 4.02273C17.3506 3.74515 17.4944 3.37999 17.4944 3C17.4944 2.60114 17.336 2.21861 17.0539 1.93658C16.7719 1.65454 16.3894 1.49609 15.9905 1.49609C15.646 1.49609 15.3137 1.61429 15.0478 1.82822ZM18.2246 5.00802C18.719 4.45806 18.9944 3.74323 18.9944 3C18.9944 2.20331 18.6779 1.43926 18.1146 0.875916C17.5512 0.312575 16.7872 -0.00390625 15.9905 -0.00390625C15.1938 -0.00390625 14.4298 0.312575 13.8664 0.875916C13.8246 0.917775 13.7886 0.963441 13.7587 1.01184L11.2841 3.6269L3.4968 0.795152C3.22295 0.69557 2.91621 0.76362 2.71016 0.969666L0.460163 3.21967C0.30128 3.37855 0.222002 3.6003 0.244143 3.8239C0.266284 4.0475 0.387511 4.2494 0.574468 4.37403L6.56326 8.36657L5.17983 9.75H3.24049C3.04158 9.75 2.85082 9.82901 2.71016 9.96967L0.460163 12.2197C0.276701 12.4031 0.201091 12.6684 0.260249 12.921C0.319407 13.1736 0.504929 13.3777 0.750774 13.4607L4.318 14.664L5.53018 18.2407C5.61339 18.4863 5.81753 18.6714 6.07001 18.7304C6.32248 18.7893 6.58749 18.7137 6.77082 18.5303L9.02082 16.2803C9.16148 16.1397 9.24049 15.9489 9.24049 15.75V13.8318L10.626 12.5723L14.6211 18.4229C14.747 18.6073 14.9485 18.726 15.1707 18.7467C15.393 18.7675 15.613 18.6882 15.7708 18.5303L18.0208 16.2803C18.2269 16.0743 18.2949 15.7675 18.1953 15.4937L15.3641 7.70792L18.0518 5.18027C18.0735 5.16292 18.0945 5.14419 18.1146 5.12408L18.1708 5.06783C18.19 5.04864 18.2079 5.02867 18.2246 5.00802Z" fill="white"/>
</svg>
