<svg width="22" height="22" viewBox="0 0 22 22" fill="none" xmlns="http://www.w3.org/2000/svg">
<path d="M14.625 6.25C15.2463 6.25 15.75 5.74632 15.75 5.125C15.75 4.50368 15.2463 4 14.625 4C14.0037 4 13.5 4.50368 13.5 5.125C13.5 5.74632 14.0037 6.25 14.625 6.25Z" fill="white"/>
<path fill-rule="evenodd" clip-rule="evenodd" d="M8.34063 3.78878C8.75241 3.83364 9.04985 4.20383 9.00498 4.6156C9.00071 4.65484 8.99899 4.69431 8.99985 4.73377L9.00002 4.74843C9.00209 5.74164 9.39809 6.69346 10.1011 7.39503C10.8042 8.0966 11.7568 8.49062 12.75 8.49062C12.9489 8.49062 13.1397 8.56963 13.2804 8.71029C13.421 8.85094 13.5 9.0417 13.5 9.24062C13.5 10.2352 13.8951 11.189 14.5984 11.8923C15.3016 12.5955 16.2555 12.9906 17.25 12.9906H17.4656C17.8799 12.9906 18.2156 13.3264 18.2156 13.7406C18.2156 14.1548 17.8799 14.4906 17.4656 14.4906H17.25C15.8576 14.4906 14.5223 13.9375 13.5377 12.9529C12.7203 12.1355 12.2003 11.0763 12.0473 9.94339C10.9162 9.79063 9.85851 9.27203 9.04157 8.4568C8.05896 7.47623 7.50476 6.14647 7.50004 4.75848C7.49816 4.65651 7.50276 4.55452 7.51381 4.45313C7.55868 4.04135 7.92886 3.74391 8.34063 3.78878Z" fill="white"/>
<path fill-rule="evenodd" clip-rule="evenodd" d="M11.7604 1.23128C15.112 0.0329421 18.6977 0.634895 19.9486 0.904307L19.9627 0.907498C20.2374 0.972247 20.4886 1.11226 20.6882 1.31182C20.8877 1.51138 21.0278 1.7626 21.0925 2.0373L21.0957 2.05145C21.3651 3.30229 21.9671 6.88801 20.7687 10.2396C20.1622 11.9359 19.0907 13.5823 17.2846 14.8187C15.5712 15.9917 13.2485 16.7603 10.1428 16.9017L8.19133 21.5408C8.06792 21.8342 7.77278 22.0177 7.45508 21.9986C7.13737 21.9796 6.8663 21.7621 6.77887 21.456L5.39333 16.6067L0.543968 15.2211C0.237939 15.1337 0.0204238 14.8626 0.00135579 14.5449C-0.0177122 14.2272 0.16582 13.9321 0.459194 13.8087L5.09833 11.8572C5.2397 8.75151 6.00833 6.42877 7.18128 4.71539C8.41769 2.9093 10.0642 1.83775 11.7604 1.23128ZM5.83126 12.3625L6.12207 13.0538L3.00612 14.3646L6.20605 15.2789C6.45521 15.35 6.64996 15.5448 6.72115 15.794L7.63542 18.9939L8.94619 15.8779C9.06071 15.6057 9.32436 15.426 9.61963 15.419C12.7556 15.3442 14.9298 14.613 16.4373 13.581C17.9406 12.5519 18.8378 11.1848 19.3563 9.7346C20.4044 6.80321 19.8884 3.57595 19.6319 2.37945C19.631 2.37684 19.6295 2.37445 19.6275 2.37248C19.6255 2.3705 19.6232 2.369 19.6206 2.36807C18.4241 2.11156 15.1968 1.59562 12.2654 2.64371C10.8152 3.16223 9.44815 4.05943 8.41903 5.56272C7.38703 7.07022 6.65582 9.24444 6.58105 12.3804L5.83126 12.3625Z" fill="white"/>
</svg>
