<svg width="24" height="24" viewBox="0 0 24 24" fill="none" xmlns="http://www.w3.org/2000/svg">
<path fill-rule="evenodd" clip-rule="evenodd" d="M3 4.50006C3 3.67163 3.67157 3.00006 4.5 3.00006H7.5C8.32843 3.00006 9 3.67163 9 4.50006V19.5001C9 20.3285 8.32843 21.0001 7.5 21.0001H4.5C3.67157 21.0001 3 20.3285 3 19.5001V4.50006ZM7.5 4.50006H4.5V19.5001H7.5V4.50006Z" fill="black"/>
<path fill-rule="evenodd" clip-rule="evenodd" d="M3 7.50006C3 7.08584 3.33579 6.75006 3.75 6.75006H8.25C8.66421 6.75006 9 7.08584 9 7.50006C9 7.91427 8.66421 8.25006 8.25 8.25006H3.75C3.33579 8.25006 3 7.91427 3 7.50006Z" fill="black"/>
<path fill-rule="evenodd" clip-rule="evenodd" d="M7.5 4.50006C7.5 3.67163 8.17157 3.00006 9 3.00006H12C12.8284 3.00006 13.5 3.67163 13.5 4.50006V19.5001C13.5 20.3285 12.8284 21.0001 12 21.0001H9C8.17157 21.0001 7.5 20.3285 7.5 19.5001V4.50006ZM12 4.50006H9V19.5001H12V4.50006Z" fill="black"/>
<path fill-rule="evenodd" clip-rule="evenodd" d="M7.5 16.5001C7.5 16.0858 7.83579 15.7501 8.25 15.7501H12.75C13.1642 15.7501 13.5 16.0858 13.5 16.5001C13.5 16.9143 13.1642 17.2501 12.75 17.2501H8.25C7.83579 17.2501 7.5 16.9143 7.5 16.5001Z" fill="black"/>
<path fill-rule="evenodd" clip-rule="evenodd" d="M12.2865 5.40208C12.0712 4.5985 12.548 3.77247 13.3515 3.55708L16.2615 2.77708C17.0651 2.56169 17.8912 3.0385 18.1065 3.84208L22.0065 18.3921C22.2219 19.1957 21.7451 20.0217 20.9415 20.2371L18.0315 21.0171C17.228 21.2325 16.4019 20.7557 16.1865 19.9521L12.2865 5.40208ZM16.6515 4.23208L13.7415 5.01208L17.6415 19.5621L20.5515 18.7821L16.6515 4.23208Z" fill="black"/>
<path fill-rule="evenodd" clip-rule="evenodd" d="M21.1241 15.433C21.2319 15.833 20.995 16.2445 20.595 16.3523L16.245 17.5242C15.8451 17.6319 15.4335 17.395 15.3257 16.9951C15.218 16.5951 15.4549 16.1836 15.8548 16.0758L20.2048 14.9039C20.6048 14.7962 21.0164 15.0331 21.1241 15.433Z" fill="black"/>
<path fill-rule="evenodd" clip-rule="evenodd" d="M18.7996 6.74392C18.9066 7.14409 18.6688 7.55519 18.2687 7.66213L13.9187 8.82463C13.5185 8.93157 13.1074 8.69386 13.0005 8.29369C12.8935 7.89352 13.1312 7.48243 13.5314 7.37549L17.8814 6.21299C18.2816 6.10604 18.6927 6.34375 18.7996 6.74392Z" fill="black"/>
</svg>
