<svg width="48" height="48" viewBox="0 0 48 48" fill="none" xmlns="http://www.w3.org/2000/svg">
<rect x="0.5" y="0.5" width="47" height="47" rx="23.5" stroke="black"/>
<path fill-rule="evenodd" clip-rule="evenodd" d="M31.2803 16.7197C31.5732 17.0126 31.5732 17.4874 31.2803 17.7803L17.7803 31.2803C17.4874 31.5732 17.0126 31.5732 16.7197 31.2803C16.4268 30.9874 16.4268 30.5126 16.7197 30.2197L30.2197 16.7197C30.5126 16.4268 30.9874 16.4268 31.2803 16.7197Z" fill="black"/>
<path fill-rule="evenodd" clip-rule="evenodd" d="M16.7197 16.7197C17.0126 16.4268 17.4874 16.4268 17.7803 16.7197L31.2803 30.2197C31.5732 30.5126 31.5732 30.9874 31.2803 31.2803C30.9874 31.5732 30.5126 31.5732 30.2197 31.2803L16.7197 17.7803C16.4268 17.4874 16.4268 17.0126 16.7197 16.7197Z" fill="black"/>
</svg>
