<svg width="48" height="48" viewBox="0 0 48 48" fill="none" xmlns="http://www.w3.org/2000/svg">
<rect x="0.5" y="0.5" width="47" height="47" rx="23.5" stroke="#E6FB04"/>
<path fill-rule="evenodd" clip-rule="evenodd" d="M15 24C15 23.5858 15.3358 23.25 15.75 23.25H32.25C32.6642 23.25 33 23.5858 33 24C33 24.4142 32.6642 24.75 32.25 24.75H15.75C15.3358 24.75 15 24.4142 15 24Z" fill="#E6FB04"/>
<path fill-rule="evenodd" clip-rule="evenodd" d="M23.0303 16.7197C23.3232 17.0126 23.3232 17.4874 23.0303 17.7803L16.8107 24L23.0303 30.2197C23.3232 30.5126 23.3232 30.9874 23.0303 31.2803C22.7374 31.5732 22.2626 31.5732 21.9697 31.2803L15.2197 24.5303C14.9268 24.2374 14.9268 23.7626 15.2197 23.4697L21.9697 16.7197C22.2626 16.4268 22.7374 16.4268 23.0303 16.7197Z" fill="#E6FB04"/>
</svg>
