<svg width="24" height="24" viewBox="0 0 24 24" fill="none" xmlns="http://www.w3.org/2000/svg">
<path fill-rule="evenodd" clip-rule="evenodd" d="M19.9261 6.33488L22.229 10.7441L22.2308 10.7476L20.5739 11.5727L18.2685 7.16365L19.9261 6.33488ZM22.8999 12.0901L20.5843 13.2432C20.2187 13.4253 19.7746 13.2813 19.5854 12.9194L16.5854 7.1819C16.4921 7.00354 16.4745 6.79518 16.5364 6.60367C16.5983 6.41216 16.7346 6.25357 16.9146 6.16356L19.2562 4.99276C19.6061 4.81543 20.0118 4.78313 20.3854 4.90296C20.7597 5.02302 21.0714 5.28607 21.2527 5.63482C21.2529 5.63516 21.253 5.6355 21.2532 5.63584L23.5567 10.0461C23.557 10.0468 23.5574 10.0475 23.5578 10.0482C23.6507 10.2244 23.7075 10.4174 23.725 10.6158C23.7426 10.8151 23.7201 11.0158 23.659 11.2062C23.5979 11.3966 23.4992 11.5729 23.369 11.7247C23.2387 11.8764 23.0789 12.0008 22.8999 12.0901Z" fill="white"/>
<path fill-rule="evenodd" clip-rule="evenodd" d="M4.07766 6.23362L1.77291 10.6464L3.4266 11.4766L5.73179 7.06068L4.07766 6.23362ZM3.60737 4.80922C3.97861 4.68664 4.38303 4.71384 4.7345 4.88503L4.74152 4.88845L7.08525 6.06036C7.26519 6.15033 7.40145 6.30883 7.4634 6.50023C7.52535 6.69164 7.5078 6.89991 7.4147 7.07825L4.4147 12.8251C4.22516 13.1882 3.77939 13.3321 3.41335 13.1483L1.10042 11.9872C0.922482 11.8994 0.763859 11.7769 0.633859 11.6269C0.502953 11.4759 0.403745 11.3002 0.342136 11.1101C0.280526 10.9199 0.257773 10.7194 0.275229 10.5203C0.292595 10.3222 0.349408 10.1297 0.442312 9.95391L2.747 5.54128C2.74713 5.54104 2.74725 5.5408 2.74738 5.54055C2.92786 5.1941 3.2364 4.93171 3.60737 4.80922Z" fill="white"/>
<path fill-rule="evenodd" clip-rule="evenodd" d="M3.15884 12.0166C3.41372 11.69 3.88503 11.632 4.21154 11.8869L9.33966 15.89L9.3509 15.8989L14.7505 17.2489C14.7565 17.2495 14.7625 17.249 14.7682 17.2474C14.774 17.2459 14.7793 17.2432 14.784 17.2397L18.1984 13.8253L19.6789 12.0857C19.9473 11.7703 20.4207 11.7322 20.7361 12.0007C21.0516 12.2691 21.0896 12.7425 20.8212 13.0579L19.3212 14.8204C19.3082 14.8357 19.2946 14.8504 19.2804 14.8646L15.8304 18.3146C15.8271 18.3179 15.8239 18.3211 15.8206 18.3242C15.8178 18.3269 15.8151 18.3295 15.8123 18.3321C15.6298 18.5028 15.4086 18.6267 15.1677 18.6933C14.9269 18.7598 14.6735 18.767 14.4292 18.7143C14.4213 18.7126 14.4135 18.7107 14.4056 18.7088L8.96813 17.3494C8.96162 17.3478 8.95512 17.3461 8.94865 17.3443C8.75283 17.2897 8.57017 17.1959 8.41176 17.0686L3.28853 13.0693C2.96202 12.8144 2.90395 12.3431 3.15884 12.0166Z" fill="white"/>
<path fill-rule="evenodd" clip-rule="evenodd" d="M13.4357 7.58435L9.77099 11.2397C9.77041 11.2405 9.76994 11.2414 9.76961 11.2423C9.76915 11.2435 9.76897 11.2448 9.76907 11.2462C9.76917 11.2475 9.76955 11.2488 9.77018 11.2499C9.77081 11.2511 9.77169 11.2521 9.77274 11.2529L10.276 11.635C10.6659 11.9252 11.139 12.082 11.6251 12.082C12.1118 12.082 12.5856 11.9248 12.9758 11.6338C12.976 11.6337 12.9762 11.6335 12.9765 11.6333L14.1751 10.7344C14.4385 10.5368 14.7999 10.5341 15.0662 10.7278L19.1912 13.7278C19.5262 13.9714 19.6003 14.4405 19.3566 14.7755C19.113 15.1105 18.6439 15.1845 18.309 14.9409L14.6319 12.2667L13.8737 12.8354C13.2242 13.3201 12.4355 13.582 11.6251 13.582C10.8147 13.582 10.0259 13.3201 9.37648 12.8354L9.37154 12.8317L8.8653 12.4473C8.69514 12.318 8.55402 12.1536 8.45201 11.9658C8.35 11.778 8.28906 11.5706 8.2732 11.3574C8.25735 11.1443 8.28695 10.9302 8.36004 10.7293C8.43314 10.5284 8.54807 10.3454 8.69721 10.1923L8.70481 10.1846L12.3804 6.51834C12.5194 6.38008 12.6842 6.27059 12.8655 6.19612C13.0464 6.12184 13.2401 6.08387 13.4355 6.08436C13.4361 6.08436 13.4366 6.08436 13.4371 6.08436L13.4345 6.83436V6.08436H13.4355H17.2501C17.6643 6.08436 18.0001 6.42014 18.0001 6.83436C18.0001 7.24857 17.6643 7.58435 17.2501 7.58435H13.4357Z" fill="white"/>
<path fill-rule="evenodd" clip-rule="evenodd" d="M11.8224 6.04591L15.0651 7.51731C15.4423 7.68847 15.8868 7.52144 16.058 7.14424C16.2291 6.76704 16.0621 6.32251 15.6849 6.15136L12.4411 4.67948L12.4401 4.67902C12.1161 4.53259 11.7506 4.50601 11.4089 4.60402L6.59574 6.01135C6.19817 6.1276 5.97012 6.54413 6.08637 6.94169C6.20261 7.33926 6.61914 7.56731 7.01671 7.45107L11.8224 6.04591Z" fill="white"/>
<path fill-rule="evenodd" clip-rule="evenodd" d="M4.68341 16.7586C4.9548 16.4456 5.42848 16.412 5.7414 16.6833L7.85756 18.5186C7.85896 18.5189 7.86035 18.5193 7.86174 18.5196L10.6836 19.2321C11.0852 19.3335 11.3286 19.7413 11.2272 20.1429C11.1258 20.5445 10.718 20.7879 10.3164 20.6865L7.50202 19.9759C7.269 19.9214 7.05316 19.8098 6.87394 19.6511L4.75862 17.8166C4.4457 17.5452 4.41202 17.0715 4.68341 16.7586Z" fill="white"/>
</svg>
