<svg width="25" height="24" viewBox="0 0 25 24" fill="none" xmlns="http://www.w3.org/2000/svg">
<path fill-rule="evenodd" clip-rule="evenodd" d="M12.5 3.75C9.6005 3.75 7.25 6.1005 7.25 9C7.25 11.8995 9.6005 14.25 12.5 14.25C15.3995 14.25 17.75 11.8995 17.75 9C17.75 6.1005 15.3995 3.75 12.5 3.75ZM5.75 9C5.75 5.27208 8.77208 2.25 12.5 2.25C16.2279 2.25 19.25 5.27208 19.25 9C19.25 12.7279 16.2279 15.75 12.5 15.75C8.77208 15.75 5.75 12.7279 5.75 9Z" fill="black"/>
<path fill-rule="evenodd" clip-rule="evenodd" d="M12.5001 15.7491C10.7885 15.7491 9.10702 16.1997 7.62474 17.0556C6.14246 17.9114 4.91161 19.1425 4.05593 20.6249C3.84886 20.9836 3.39017 21.1065 3.03144 20.8995C2.6727 20.6924 2.54975 20.2337 2.75682 19.875C3.74415 18.1645 5.16435 16.7441 6.87468 15.7566C8.585 14.769 10.5252 14.2491 12.5001 14.2491C14.4751 14.2491 16.4153 14.769 18.1256 15.7566C19.8359 16.7441 21.2561 18.1645 22.2434 19.875C22.4505 20.2337 22.3276 20.6924 21.9688 20.8995C21.6101 21.1065 21.1514 20.9836 20.9443 20.6249C20.0886 19.1425 18.8578 17.9114 17.3755 17.0556C15.8932 16.1997 14.2118 15.7491 12.5001 15.7491Z" fill="black"/>
</svg>
